<svg xmlns="http://www.w3.org/2000/svg" viewBox="0 0 480 480" width="480" height="480"><line x1="235.4" y1="133.7" x2="234.1" y2="102.0" stroke="#c8961a" stroke-width="0.61" opacity="0.28"/><line x1="277.5" y1="292.5" x2="295.7" y2="318.0" stroke="#c8961a" stroke-width="0.65" opacity="0.39"/><line x1="120.0" y1="166.5" x2="95.3" y2="151.3" stroke="#c8961a" stroke-width="0.44" opacity="0.36"/><line x1="369.6" y1="207.0" x2="392.3" y2="201.1" stroke="#c8961a" stroke-width="0.47" opacity="0.39"/><line x1="301.8" y1="238.0" x2="355.4" y2="236.2" stroke="#c8961a" stroke-width="0.73" opacity="0.36"/><line x1="313.9" y1="250.4" x2="350.8" y2="255.5" stroke="#f5c518" stroke-width="0.71" opacity="0.16"/><line x1="240.6" y1="105.1" x2="241.0" y2="21.1" stroke="#c8961a" stroke-width="0.72" opacity="0.38"/><line x1="318.2" y1="237.6" x2="349.6" y2="236.6" stroke="#f5c518" stroke-width="0.69" opacity="0.34"/><line x1="202.8" y1="327.5" x2="188.5" y2="361.3" stroke="#c8961a" stroke-width="0.57" opacity="0.25"/><line x1="327.1" y1="244.1" x2="383.0" y2="246.8" stroke="#f5c518" stroke-width="0.76" opacity="0.33"/><line x1="320.3" y1="141.9" x2="359.0" y2="94.7" stroke="#c8961a" stroke-width="0.72" opacity="0.17"/><line x1="292.2" y1="208.5" x2="359.2" y2="168.1" stroke="#c8961a" stroke-width="0.46" opacity="0.32"/><line x1="318.1" y1="248.0" x2="382.6" y2="254.6" stroke="#f5c518" stroke-width="0.75" opacity="0.36"/><line x1="173.4" y1="299.5" x2="137.3" y2="331.7" stroke="#f5c518" stroke-width="0.65" opacity="0.31"/><line x1="273.5" y1="163.7" x2="301.5" y2="99.8" stroke="#c8961a" stroke-width="0.67" opacity="0.17"/><line x1="323.7" y1="178.0" x2="340.2" y2="165.7" stroke="#c8961a" stroke-width="0.71" opacity="0.14"/><line x1="277.0" y1="353.4" x2="299.7" y2="422.7" stroke="#c8961a" stroke-width="0.72" opacity="0.40"/><line x1="282.3" y1="345.2" x2="307.7" y2="408.5" stroke="#c8961a" stroke-width="0.66" opacity="0.30"/><line x1="121.2" y1="204.1" x2="37.5" y2="178.9" stroke="#c8961a" stroke-width="0.45" opacity="0.37"/><line x1="297.6" y1="217.9" x2="376.3" y2="187.7" stroke="#c8961a" stroke-width="0.72" opacity="0.33"/><line x1="304.8" y1="287.4" x2="324.4" y2="301.8" stroke="#c8961a" stroke-width="0.53" opacity="0.26"/><line x1="171.2" y1="244.8" x2="97.3" y2="250.0" stroke="#c8961a" stroke-width="0.62" opacity="0.26"/><line x1="320.9" y1="190.7" x2="340.4" y2="178.8" stroke="#c8961a" stroke-width="0.66" opacity="0.38"/><line x1="341.4" y1="174.2" x2="373.5" y2="153.3" stroke="#c8961a" stroke-width="0.75" opacity="0.14"/><line x1="329.5" y1="140.1" x2="354.5" y2="112.2" stroke="#c8961a" stroke-width="0.59" opacity="0.19"/><line x1="312.1" y1="278.2" x2="330.8" y2="288.0" stroke="#c8961a" stroke-width="0.66" opacity="0.27"/><line x1="231.7" y1="363.5" x2="230.6" y2="379.5" stroke="#c8961a" stroke-width="0.70" opacity="0.27"/><line x1="315.6" y1="169.0" x2="355.8" y2="131.3" stroke="#c8961a" stroke-width="0.63" opacity="0.20"/><line x1="213.3" y1="349.5" x2="195.2" y2="423.8" stroke="#c8961a" stroke-width="0.67" opacity="0.33"/><line x1="127.6" y1="308.3" x2="94.6" y2="328.3" stroke="#c8961a" stroke-width="0.61" opacity="0.27"/><line x1="183.8" y1="317.6" x2="170.2" y2="336.4" stroke="#f5c518" stroke-width="0.60" opacity="0.23"/><line x1="261.9" y1="326.3" x2="282.7" y2="408.1" stroke="#c8961a" stroke-width="0.48" opacity="0.16"/><line x1="166.1" y1="145.2" x2="150.1" y2="124.5" stroke="#f5c518" stroke-width="0.66" opacity="0.27"/><line x1="378.4" y1="224.9" x2="415.5" y2="220.8" stroke="#c8961a" stroke-width="0.63" opacity="0.26"/><line x1="178.6" y1="286.9" x2="138.7" y2="317.4" stroke="#c8961a" stroke-width="0.63" opacity="0.31"/><line x1="359.2" y1="169.2" x2="396.1" y2="147.2" stroke="#c8961a" stroke-width="0.71" opacity="0.29"/><line x1="303.9" y1="359.4" x2="331.6" y2="411.2" stroke="#f5c518" stroke-width="0.64" opacity="0.32"/><line x1="140.3" y1="155.1" x2="109.1" y2="128.6" stroke="#c8961a" stroke-width="0.73" opacity="0.37"/><line x1="116.0" y1="240.3" x2="37.8" y2="240.5" stroke="#c8961a" stroke-width="0.60" opacity="0.35"/><line x1="113.8" y1="276.5" x2="64.2" y2="290.9" stroke="#c8961a" stroke-width="0.70" opacity="0.13"/><line x1="174.1" y1="218.6" x2="98.0" y2="193.9" stroke="#c8961a" stroke-width="0.50" opacity="0.37"/><line x1="332.8" y1="244.3" x2="354.9" y2="245.3" stroke="#f5c518" stroke-width="0.42" opacity="0.22"/><line x1="193.6" y1="347.4" x2="174.1" y2="392.5" stroke="#f5c518" stroke-width="0.69" opacity="0.37"/><line x1="230.5" y1="115.2" x2="224.1" y2="30.1" stroke="#f5c518" stroke-width="0.47" opacity="0.36"/><line x1="197.3" y1="131.7" x2="169.6" y2="61.3" stroke="#f5c518" stroke-width="0.51" opacity="0.20"/><line x1="337.5" y1="342.1" x2="349.2" y2="354.4" stroke="#c8961a" stroke-width="0.59" opacity="0.18"/><line x1="279.9" y1="184.1" x2="300.6" y2="155.0" stroke="#c8961a" stroke-width="0.41" opacity="0.37"/><line x1="290.3" y1="352.6" x2="298.1" y2="370.2" stroke="#f5c518" stroke-width="0.46" opacity="0.39"/><line x1="326.6" y1="295.5" x2="353.7" y2="312.8" stroke="#c8961a" stroke-width="0.63" opacity="0.32"/><line x1="306.6" y1="225.1" x2="368.5" y2="211.3" stroke="#c8961a" stroke-width="0.73" opacity="0.24"/><line x1="172.8" y1="332.4" x2="163.0" y2="345.8" stroke="#c8961a" stroke-width="0.41" opacity="0.38"/><line x1="153.0" y1="252.4" x2="83.7" y2="262.2" stroke="#c8961a" stroke-width="0.58" opacity="0.25"/><line x1="270.1" y1="293.9" x2="301.7" y2="350.6" stroke="#c8961a" stroke-width="0.61" opacity="0.12"/><line x1="250.0" y1="300.4" x2="257.2" y2="344.1" stroke="#c8961a" stroke-width="0.55" opacity="0.22"/><line x1="250.1" y1="123.6" x2="256.1" y2="53.9" stroke="#c8961a" stroke-width="0.69" opacity="0.19"/><line x1="183.5" y1="218.7" x2="100.7" y2="187.5" stroke="#f5c518" stroke-width="0.71" opacity="0.39"/><line x1="365.3" y1="289.9" x2="400.0" y2="303.7" stroke="#f5c518" stroke-width="0.58" opacity="0.25"/><line x1="263.8" y1="150.8" x2="282.4" y2="81.0" stroke="#c8961a" stroke-width="0.62" opacity="0.25"/><line x1="318.5" y1="331.6" x2="336.2" y2="352.3" stroke="#f5c518" stroke-width="0.45" opacity="0.12"/><line x1="355.1" y1="170.4" x2="414.2" y2="134.7" stroke="#c8961a" stroke-width="0.61" opacity="0.16"/><line x1="327.0" y1="157.5" x2="386.3" y2="101.2" stroke="#c8961a" stroke-width="0.74" opacity="0.26"/><line x1="284.0" y1="196.2" x2="347.2" y2="133.4" stroke="#c8961a" stroke-width="0.57" opacity="0.38"/><line x1="328.6" y1="301.6" x2="361.6" y2="324.6" stroke="#f5c518" stroke-width="0.48" opacity="0.15"/><line x1="155.3" y1="207.8" x2="111.1" y2="191.0" stroke="#c8961a" stroke-width="0.62" opacity="0.26"/><line x1="297.6" y1="305.9" x2="314.4" y2="325.0" stroke="#c8961a" stroke-width="0.73" opacity="0.34"/><line x1="142.4" y1="155.9" x2="81.2" y2="103.2" stroke="#f5c518" stroke-width="0.74" opacity="0.24"/><line x1="295.3" y1="212.6" x2="349.4" y2="185.8" stroke="#c8961a" stroke-width="0.45" opacity="0.21"/><line x1="297.1" y1="204.0" x2="345.4" y2="173.5" stroke="#c8961a" stroke-width="0.45" opacity="0.35"/><line x1="345.8" y1="186.7" x2="405.2" y2="156.7" stroke="#c8961a" stroke-width="0.58" opacity="0.13"/><line x1="329.5" y1="189.5" x2="369.4" y2="167.0" stroke="#c8961a" stroke-width="0.58" opacity="0.19"/><line x1="330.9" y1="198.1" x2="351.1" y2="188.8" stroke="#c8961a" stroke-width="0.49" opacity="0.24"/><line x1="175.5" y1="225.6" x2="110.2" y2="211.0" stroke="#c8961a" stroke-width="0.73" opacity="0.40"/><line x1="311.2" y1="157.9" x2="348.7" y2="114.7" stroke="#c8961a" stroke-width="0.69" opacity="0.34"/><line x1="149.7" y1="208.1" x2="92.4" y2="187.9" stroke="#f5c518" stroke-width="0.63" opacity="0.37"/><line x1="298.7" y1="301.1" x2="322.3" y2="325.7" stroke="#f5c518" stroke-width="0.72" opacity="0.20"/><line x1="185.4" y1="129.6" x2="159.2" y2="76.5" stroke="#c8961a" stroke-width="0.64" opacity="0.32"/><line x1="301.5" y1="217.0" x2="352.8" y2="197.8" stroke="#c8961a" stroke-width="0.51" opacity="0.14"/><line x1="256.6" y1="316.8" x2="264.2" y2="352.4" stroke="#c8961a" stroke-width="0.58" opacity="0.15"/><line x1="220.7" y1="159.1" x2="212.9" y2="126.4" stroke="#c8961a" stroke-width="0.62" opacity="0.31"/><line x1="172.2" y1="270.7" x2="131.1" y2="289.3" stroke="#c8961a" stroke-width="0.50" opacity="0.20"/><line x1="291.8" y1="179.0" x2="337.9" y2="124.6" stroke="#c8961a" stroke-width="0.56" opacity="0.31"/><line x1="232.3" y1="105.2" x2="229.7" y2="60.3" stroke="#f5c518" stroke-width="0.41" opacity="0.18"/><line x1="142.9" y1="279.4" x2="102.4" y2="295.9" stroke="#c8961a" stroke-width="0.61" opacity="0.20"/><line x1="159.0" y1="204.5" x2="114.0" y2="184.8" stroke="#c8961a" stroke-width="0.77" opacity="0.34"/><line x1="98.7" y1="226.1" x2="68.7" y2="223.1" stroke="#c8961a" stroke-width="0.63" opacity="0.38"/><line x1="168.6" y1="255.3" x2="84.1" y2="273.4" stroke="#c8961a" stroke-width="0.42" opacity="0.13"/><line x1="234.4" y1="176.6" x2="226.8" y2="91.2" stroke="#c8961a" stroke-width="0.64" opacity="0.13"/><line x1="332.3" y1="219.1" x2="391.5" y2="205.7" stroke="#f5c518" stroke-width="0.71" opacity="0.29"/><line x1="136.2" y1="308.6" x2="65.7" y2="355.3" stroke="#c8961a" stroke-width="0.44" opacity="0.35"/><line x1="219.0" y1="323.3" x2="205.9" y2="375.4" stroke="#c8961a" stroke-width="0.64" opacity="0.22"/><line x1="122.2" y1="196.4" x2="95.0" y2="186.4" stroke="#c8961a" stroke-width="0.57" opacity="0.16"/><line x1="136.2" y1="332.3" x2="96.4" y2="367.7" stroke="#f5c518" stroke-width="0.53" opacity="0.40"/><line x1="159.9" y1="262.3" x2="119.4" y2="273.5" stroke="#f5c518" stroke-width="0.45" opacity="0.38"/><line x1="236.7" y1="329.6" x2="235.2" y2="370.3" stroke="#c8961a" stroke-width="0.65" opacity="0.13"/><line x1="351.0" y1="294.7" x2="425.4" y2="331.3" stroke="#c8961a" stroke-width="0.60" opacity="0.16"/><line x1="175.0" y1="266.1" x2="130.2" y2="284.1" stroke="#f5c518" stroke-width="0.41" opacity="0.36"/><line x1="281.4" y1="363.7" x2="305.6" y2="436.2" stroke="#c8961a" stroke-width="0.72" opacity="0.20"/><line x1="355.6" y1="265.0" x2="421.0" y2="279.2" stroke="#c8961a" stroke-width="0.50" opacity="0.23"/><line x1="161.6" y1="209.2" x2="111.4" y2="189.4" stroke="#f5c518" stroke-width="0.51" opacity="0.21"/><line x1="327.6" y1="228.2" x2="363.4" y2="223.4" stroke="#f5c518" stroke-width="0.56" opacity="0.19"/><line x1="338.5" y1="327.6" x2="374.2" y2="359.3" stroke="#f5c518" stroke-width="0.51" opacity="0.17"/><line x1="243.5" y1="375.8" x2="245.0" y2="432.5" stroke="#c8961a" stroke-width="0.74" opacity="0.22"/><line x1="236.6" y1="321.8" x2="235.7" y2="344.2" stroke="#f5c518" stroke-width="0.61" opacity="0.29"/><line x1="239.9" y1="118.2" x2="239.9" y2="102.4" stroke="#c8961a" stroke-width="0.45" opacity="0.40"/><line x1="331.7" y1="172.8" x2="359.4" y2="152.5" stroke="#c8961a" stroke-width="0.72" opacity="0.22"/><line x1="365.8" y1="290.4" x2="438.5" y2="319.6" stroke="#f5c518" stroke-width="0.68" opacity="0.30"/><line x1="301.7" y1="225.2" x2="339.7" y2="216.1" stroke="#c8961a" stroke-width="0.75" opacity="0.14"/><line x1="327.3" y1="195.1" x2="398.9" y2="158.3" stroke="#c8961a" stroke-width="0.43" opacity="0.15"/><line x1="203.7" y1="177.2" x2="191.6" y2="156.3" stroke="#c8961a" stroke-width="0.49" opacity="0.21"/><line x1="214.2" y1="151.1" x2="201.4" y2="107.1" stroke="#f5c518" stroke-width="0.76" opacity="0.26"/><line x1="288.9" y1="277.5" x2="327.4" y2="307.1" stroke="#c8961a" stroke-width="0.45" opacity="0.28"/><line x1="170.8" y1="185.0" x2="132.4" y2="154.5" stroke="#c8961a" stroke-width="0.72" opacity="0.29"/><line x1="321.0" y1="246.2" x2="340.5" y2="247.6" stroke="#c8961a" stroke-width="0.55" opacity="0.34"/><line x1="291.4" y1="168.7" x2="331.7" y2="112.9" stroke="#c8961a" stroke-width="0.68" opacity="0.32"/><line x1="191.6" y1="316.5" x2="152.8" y2="377.9" stroke="#f5c518" stroke-width="0.61" opacity="0.13"/><line x1="192.4" y1="277.8" x2="141.8" y2="318.1" stroke="#f5c518" stroke-width="0.43" opacity="0.28"/><line x1="138.9" y1="332.7" x2="82.6" y2="384.3" stroke="#f5c518" stroke-width="0.51" opacity="0.18"/><line x1="330.0" y1="155.5" x2="391.2" y2="98.0" stroke="#c8961a" stroke-width="0.43" opacity="0.39"/><line x1="207.7" y1="328.6" x2="202.0" y2="344.3" stroke="#c8961a" stroke-width="0.64" opacity="0.34"/><line x1="326.1" y1="226.8" x2="341.0" y2="224.5" stroke="#f5c518" stroke-width="0.50" opacity="0.31"/><line x1="195.7" y1="161.1" x2="172.9" y2="120.5" stroke="#c8961a" stroke-width="0.67" opacity="0.25"/><line x1="273.2" y1="342.3" x2="283.7" y2="374.7" stroke="#c8961a" stroke-width="0.66" opacity="0.17"/><line x1="264.5" y1="106.1" x2="274.0" y2="53.8" stroke="#c8961a" stroke-width="0.70" opacity="0.24"/><line x1="216.4" y1="307.6" x2="206.4" y2="336.2" stroke="#f5c518" stroke-width="0.72" opacity="0.20"/><line x1="318.5" y1="291.3" x2="355.3" y2="315.3" stroke="#f5c518" stroke-width="0.55" opacity="0.31"/><line x1="187.1" y1="206.3" x2="129.5" y2="169.6" stroke="#c8961a" stroke-width="0.61" opacity="0.17"/><line x1="265.6" y1="123.0" x2="284.4" y2="37.2" stroke="#c8961a" stroke-width="0.58" opacity="0.28"/><line x1="170.6" y1="314.1" x2="120.9" y2="367.1" stroke="#c8961a" stroke-width="0.75" opacity="0.29"/><line x1="306.1" y1="175.5" x2="327.3" y2="154.9" stroke="#c8961a" stroke-width="0.58" opacity="0.36"/><line x1="281.4" y1="113.3" x2="290.4" y2="85.6" stroke="#c8961a" stroke-width="0.59" opacity="0.20"/><line x1="239.1" y1="164.4" x2="238.8" y2="134.3" stroke="#c8961a" stroke-width="0.45" opacity="0.16"/><line x1="155.6" y1="156.8" x2="136.8" y2="138.4" stroke="#f5c518" stroke-width="0.75" opacity="0.16"/><line x1="314.8" y1="162.7" x2="334.2" y2="142.7" stroke="#c8961a" stroke-width="0.48" opacity="0.39"/><line x1="380.3" y1="231.2" x2="458.0" y2="226.3" stroke="#c8961a" stroke-width="0.47" opacity="0.26"/><line x1="279.4" y1="165.4" x2="300.3" y2="125.8" stroke="#c8961a" stroke-width="0.59" opacity="0.38"/><line x1="366.0" y1="250.1" x2="388.5" y2="251.9" stroke="#c8961a" stroke-width="0.44" opacity="0.23"/><line x1="143.4" y1="278.0" x2="90.4" y2="298.8" stroke="#c8961a" stroke-width="0.65" opacity="0.29"/><line x1="250.7" y1="156.7" x2="253.7" y2="133.2" stroke="#c8961a" stroke-width="0.58" opacity="0.28"/><line x1="264.2" y1="157.6" x2="269.2" y2="140.7" stroke="#f5c518" stroke-width="0.56" opacity="0.38"/><line x1="182.5" y1="169.5" x2="153.0" y2="133.3" stroke="#c8961a" stroke-width="0.48" opacity="0.26"/><line x1="191.9" y1="295.4" x2="148.2" y2="345.7" stroke="#f5c518" stroke-width="0.47" opacity="0.12"/><line x1="309.8" y1="268.9" x2="380.4" y2="298.3" stroke="#c8961a" stroke-width="0.54" opacity="0.13"/><line x1="303.4" y1="339.9" x2="334.1" y2="388.2" stroke="#f5c518" stroke-width="0.69" opacity="0.30"/><line x1="133.3" y1="225.1" x2="105.8" y2="221.2" stroke="#c8961a" stroke-width="0.54" opacity="0.15"/><line x1="171.6" y1="279.6" x2="155.4" y2="289.0" stroke="#c8961a" stroke-width="0.55" opacity="0.21"/><line x1="124.4" y1="192.2" x2="78.0" y2="173.0" stroke="#c8961a" stroke-width="0.41" opacity="0.15"/><line x1="263.2" y1="180.2" x2="291.7" y2="106.7" stroke="#c8961a" stroke-width="0.47" opacity="0.36"/><line x1="188.6" y1="198.7" x2="175.9" y2="188.5" stroke="#c8961a" stroke-width="0.52" opacity="0.39"/><line x1="174.3" y1="204.0" x2="114.5" y2="171.3" stroke="#f5c518" stroke-width="0.56" opacity="0.21"/><line x1="258.5" y1="102.4" x2="262.6" y2="72.1" stroke="#c8961a" stroke-width="0.58" opacity="0.35"/><circle cx="345.0" cy="303.7" r="0.71" fill="#f5c518" opacity="0.69"/><circle cx="94.4" cy="151.5" r="1.32" fill="#f5c518" opacity="0.60"/><circle cx="222.6" cy="389.1" r="0.72" fill="#f5c518" opacity="0.50"/><circle cx="134.1" cy="363.4" r="0.83" fill="#c8961a" opacity="0.21"/><circle cx="332.1" cy="276.1" r="1.25" fill="#f5c518" opacity="0.37"/><circle cx="425.5" cy="296.3" r="0.76" fill="#c8961a" opacity="0.23"/><circle cx="206.8" cy="339.6" r="0.49" fill="#f5c518" opacity="0.49"/><circle cx="265.7" cy="117.5" r="0.93" fill="#c8961a" opacity="0.59"/><circle cx="202.2" cy="310.4" r="0.69" fill="#c8961a" opacity="0.57"/><circle cx="300.2" cy="277.6" r="0.64" fill="#f5c518" opacity="0.59"/><circle cx="208.6" cy="212.0" r="1.11" fill="#f5c518" opacity="0.65"/><circle cx="93.0" cy="415.0" r="1.84" fill="#f5c518" opacity="0.21"/><circle cx="125.3" cy="426.8" r="0.70" fill="#f5c518" opacity="0.50"/><circle cx="324.3" cy="325.4" r="1.02" fill="#f5c518" opacity="0.43"/><circle cx="330.2" cy="428.5" r="1.13" fill="#f5c518" opacity="0.29"/><circle cx="381.1" cy="183.8" r="0.62" fill="#c8961a" opacity="0.59"/><circle cx="291.4" cy="307.5" r="0.44" fill="#f5c518" opacity="0.67"/><circle cx="378.6" cy="375.9" r="0.94" fill="#fff3c8" opacity="0.25"/><circle cx="165.5" cy="110.8" r="1.08" fill="#f5c518" opacity="0.64"/><circle cx="110.7" cy="186.8" r="0.97" fill="#f5c518" opacity="0.27"/><circle cx="193.4" cy="379.1" r="1.63" fill="#f5c518" opacity="0.61"/><circle cx="320.7" cy="312.4" r="0.93" fill="#f5c518" opacity="0.36"/><circle cx="340.0" cy="282.1" r="0.54" fill="#f5c518" opacity="0.63"/><circle cx="209.0" cy="283.9" r="1.08" fill="#f5c518" opacity="0.46"/><circle cx="133.8" cy="193.1" r="0.42" fill="#f5c518" opacity="0.55"/><circle cx="123.1" cy="165.5" r="0.41" fill="#f5c518" opacity="0.51"/><circle cx="261.4" cy="445.7" r="0.47" fill="#c8961a" opacity="0.55"/><circle cx="92.3" cy="412.2" r="0.54" fill="#c8961a" opacity="0.46"/><circle cx="269.5" cy="444.6" r="1.00" fill="#f5c518" opacity="0.37"/><circle cx="355.3" cy="387.2" r="0.83" fill="#f5c518" opacity="0.33"/><circle cx="287.7" cy="52.7" r="0.59" fill="#c8961a" opacity="0.25"/><circle cx="147.3" cy="406.7" r="0.52" fill="#fff3c8" opacity="0.22"/><circle cx="368.0" cy="294.7" r="1.00" fill="#c8961a" opacity="0.60"/><circle cx="192.4" cy="74.0" r="0.41" fill="#f5c518" opacity="0.67"/><circle cx="312.3" cy="161.4" r="0.74" fill="#f5c518" opacity="0.48"/><circle cx="276.9" cy="288.4" r="0.49" fill="#f5c518" opacity="0.47"/><circle cx="299.1" cy="144.4" r="0.44" fill="#f5c518" opacity="0.41"/><circle cx="293.2" cy="319.2" r="0.47" fill="#f5c518" opacity="0.53"/><circle cx="189.4" cy="43.0" r="0.93" fill="#fff3c8" opacity="0.39"/><circle cx="115.8" cy="140.3" r="1.27" fill="#c8961a" opacity="0.62"/><circle cx="301.5" cy="184.7" r="0.72" fill="#fff3c8" opacity="0.39"/><circle cx="230.7" cy="56.4" r="1.22" fill="#f5c518" opacity="0.61"/><circle cx="251.0" cy="392.1" r="0.41" fill="#f5c518" opacity="0.20"/><circle cx="196.3" cy="291.6" r="0.60" fill="#c8961a" opacity="0.68"/><circle cx="151.1" cy="167.0" r="0.46" fill="#fff3c8" opacity="0.66"/><circle cx="155.4" cy="441.9" r="0.78" fill="#f5c518" opacity="0.40"/><circle cx="121.2" cy="262.0" r="1.03" fill="#f5c518" opacity="0.38"/><circle cx="323.6" cy="237.0" r="0.82" fill="#f5c518" opacity="0.55"/><circle cx="214.4" cy="457.6" r="1.14" fill="#f5c518" opacity="0.46"/><circle cx="304.3" cy="236.7" r="0.63" fill="#f5c518" opacity="0.49"/><circle cx="89.5" cy="174.5" r="0.66" fill="#f5c518" opacity="0.41"/><circle cx="298.5" cy="290.5" r="1.21" fill="#f5c518" opacity="0.18"/><circle cx="418.5" cy="376.2" r="0.81" fill="#f5c518" opacity="0.27"/><circle cx="324.9" cy="245.5" r="0.72" fill="#f5c518" opacity="0.65"/><circle cx="419.8" cy="354.9" r="0.47" fill="#f5c518" opacity="0.44"/><circle cx="37.1" cy="140.7" r="1.03" fill="#f5c518" opacity="0.69"/><circle cx="120.2" cy="155.6" r="0.43" fill="#c8961a" opacity="0.61"/><circle cx="166.7" cy="66.1" r="0.70" fill="#c8961a" opacity="0.24"/><circle cx="58.5" cy="132.2" r="1.31" fill="#f5c518" opacity="0.26"/><circle cx="204.7" cy="86.6" r="0.67" fill="#fff3c8" opacity="0.44"/><circle cx="125.9" cy="103.0" r="0.53" fill="#f5c518" opacity="0.31"/><circle cx="231.9" cy="104.8" r="0.41" fill="#f5c518" opacity="0.35"/><circle cx="35.7" cy="284.3" r="0.72" fill="#f5c518" opacity="0.47"/><circle cx="67.4" cy="364.4" r="0.61" fill="#f5c518" opacity="0.52"/><circle cx="293.9" cy="159.7" r="0.41" fill="#f5c518" opacity="0.61"/><circle cx="238.8" cy="198.4" r="0.64" fill="#f5c518" opacity="0.45"/><circle cx="363.2" cy="416.6" r="1.12" fill="#fff3c8" opacity="0.48"/><circle cx="276.4" cy="315.0" r="0.52" fill="#f5c518" opacity="0.49"/><circle cx="306.1" cy="356.4" r="0.51" fill="#f5c518" opacity="0.40"/><circle cx="414.8" cy="202.2" r="0.75" fill="#f5c518" opacity="0.58"/><circle cx="284.7" cy="443.3" r="0.92" fill="#c8961a" opacity="0.20"/><circle cx="176.0" cy="383.8" r="1.02" fill="#f5c518" opacity="0.54"/><circle cx="293.3" cy="422.2" r="1.52" fill="#fff3c8" opacity="0.61"/><circle cx="427.1" cy="162.4" r="0.57" fill="#c8961a" opacity="0.61"/><circle cx="182.1" cy="23.7" r="0.45" fill="#f5c518" opacity="0.29"/><circle cx="67.2" cy="221.0" r="0.51" fill="#fff3c8" opacity="0.62"/><circle cx="206.8" cy="27.1" r="0.48" fill="#fff3c8" opacity="0.61"/><circle cx="369.0" cy="379.0" r="0.84" fill="#f5c518" opacity="0.28"/><circle cx="299.6" cy="269.2" r="0.61" fill="#f5c518" opacity="0.55"/><circle cx="347.2" cy="372.1" r="0.43" fill="#f5c518" opacity="0.57"/><circle cx="58.1" cy="232.6" r="0.41" fill="#fff3c8" opacity="0.52"/><circle cx="163.4" cy="376.7" r="0.68" fill="#f5c518" opacity="0.58"/><circle cx="409.6" cy="335.1" r="0.89" fill="#f5c518" opacity="0.67"/><circle cx="289.8" cy="90.9" r="0.61" fill="#c8961a" opacity="0.38"/><circle cx="85.7" cy="186.8" r="0.47" fill="#fff3c8" opacity="0.60"/><circle cx="256.2" cy="88.2" r="1.02" fill="#f5c518" opacity="0.46"/><circle cx="324.7" cy="380.8" r="0.63" fill="#c8961a" opacity="0.34"/><circle cx="358.9" cy="51.6" r="0.88" fill="#f5c518" opacity="0.60"/><circle cx="294.4" cy="91.4" r="0.40" fill="#f5c518" opacity="0.32"/><circle cx="361.3" cy="88.1" r="1.08" fill="#f5c518" opacity="0.66"/><circle cx="394.5" cy="290.9" r="0.65" fill="#f5c518" opacity="0.60"/><circle cx="134.1" cy="271.9" r="1.38" fill="#c8961a" opacity="0.51"/><circle cx="96.2" cy="111.2" r="0.44" fill="#f5c518" opacity="0.26"/><circle cx="319.9" cy="214.4" r="1.39" fill="#c8961a" opacity="0.42"/><circle cx="171.6" cy="36.3" r="0.55" fill="#f5c518" opacity="0.38"/><circle cx="240.0" cy="240.0" r="90.0" fill="none" stroke="#f5c518" stroke-width="1.58" stroke-dasharray="0.01 7.18" stroke-dashoffset="1.70" stroke-linecap="round" opacity="0.55"/><circle cx="240.0" cy="240.0" r="117.0" fill="none" stroke="#f5c518" stroke-width="1.44" stroke-dasharray="0.01 6.32" stroke-dashoffset="0.60" stroke-linecap="round" opacity="0.42"/><circle cx="240.0" cy="240.0" r="150.0" fill="none" stroke="#c8961a" stroke-width="1.36" stroke-dasharray="0.01 6.90" stroke-dashoffset="2.90" stroke-linecap="round" opacity="0.38"/><circle cx="240.0" cy="240.0" r="183.0" fill="none" stroke="#c8961a" stroke-width="1.22" stroke-dasharray="0.01 7.76" stroke-dashoffset="1.20" stroke-linecap="round" opacity="0.26"/><path d="M318.5,240.0L318.1,247.7L316.9,255.3L315.0,262.7L312.3,269.9L309.0,276.9L305.0,283.4L300.5,289.6L295.4,295.4L289.7,300.6L283.6,305.2L277.0,309.1L270.0,312.4L262.7,314.8L255.2,316.5L247.6,317.4L240.0,317.6L232.4,317.0L224.9,315.8L217.6,314.0L210.4,311.5L203.5,308.3L196.9,304.6L190.6,300.1L184.9,295.1L179.7,289.5L175.1,283.3L171.2,276.8L168.0,269.8L165.5,262.6L163.6,255.2L162.4,247.6L161.9,240.0L162.2,232.3L163.1,224.7L164.8,217.2L167.3,209.9L170.6,202.9L174.6,196.3L179.2,190.1L184.5,184.5L190.4,179.5L196.6,175.1L203.3,171.3L210.2,168.2L217.4,165.6L224.8,163.8L232.4,162.6L240.0,162.2L247.6,162.5L255.2,163.6L262.6,165.5L269.7,168.2L276.6,171.6L283.0,175.6L289.1,180.2L294.7,185.3L299.9,190.9L304.5,196.9L308.6,203.3L312.1,210.2L314.8,217.3L316.9,224.7L318.1,232.3L318.5,240.0Z" fill="none" stroke="#f5c518" stroke-width="0.72" opacity="0.34"/><path d="M345.9,240.0L345.5,250.4L343.9,260.7L341.3,270.7L337.6,280.4L332.9,289.6L327.3,298.3L320.9,306.4L313.8,313.8L306.1,320.5L297.9,326.6L289.1,331.9L279.9,336.4L270.3,340.0L260.4,342.6L250.3,344.2L240.0,344.7L229.7,344.1L219.6,342.5L209.7,339.9L200.1,336.4L190.8,332.1L181.9,326.9L173.5,321.0L165.7,314.3L158.5,306.9L152.1,298.7L146.5,290.0L142.0,280.6L138.5,270.8L136.1,260.7L134.7,250.4L134.5,240.0L135.2,229.7L136.9,219.5L139.5,209.5L143.0,199.8L147.3,190.5L152.6,181.6L158.7,173.3L165.6,165.6L173.3,158.8L181.7,152.8L190.7,147.7L200.1,143.6L209.8,140.4L219.7,138.1L229.8,136.7L240.0,136.1L250.2,136.4L260.4,137.6L270.4,139.8L280.2,143.0L289.6,147.2L298.5,152.4L306.9,158.5L314.5,165.5L321.4,173.2L327.5,181.5L332.8,190.4L337.2,199.7L340.8,209.4L343.5,219.4L345.2,229.6L345.9,240.0Z" fill="none" stroke="#c8961a" stroke-width="0.79" opacity="0.4"/><path d="M377.8,240.0L377.1,253.5L375.0,266.9L371.5,279.9L366.8,292.5L360.8,304.6L353.8,316.0L345.8,326.8L336.9,336.9L327.1,346.1L316.4,354.4L305.1,361.7L293.0,367.8L280.3,372.7L267.1,376.2L253.6,378.2L240.0,378.9L226.4,378.0L213.0,375.9L199.8,372.4L187.1,367.8L174.8,362.0L163.1,355.1L152.1,347.1L141.9,338.1L132.7,328.0L124.6,317.1L117.8,305.3L112.2,292.9L108.0,280.0L105.1,266.8L103.5,253.4L103.1,240.0L103.9,226.6L105.8,213.3L109.0,200.3L113.3,187.5L118.8,175.2L125.5,163.5L133.5,152.6L142.5,142.5L152.5,133.4L163.4,125.4L175.0,118.5L187.3,112.7L200.0,108.2L213.1,104.8L226.5,102.6L240.0,101.6L253.6,101.9L267.1,103.6L280.4,106.8L293.3,111.3L305.6,117.2L317.3,124.4L328.0,132.8L337.9,142.1L346.7,152.4L354.6,163.5L361.4,175.1L367.1,187.4L371.7,200.1L375.0,213.1L377.1,226.5L377.8,240.0Z" fill="none" stroke="#f5c518" stroke-width="0.79" opacity="0.34"/><path d="M405.3,240.0L404.2,256.2L401.5,272.1L397.4,287.7L391.9,302.9L385.0,317.5L376.8,331.4L367.2,344.4L356.5,356.5L344.5,367.3L331.5,376.9L317.5,385.1L302.9,391.8L287.6,397.1L272.0,400.8L256.1,403.2L240.0,404.1L223.9,403.5L207.9,401.5L192.1,398.0L176.7,392.9L161.9,386.2L147.8,378.0L134.7,368.4L122.6,357.4L111.8,345.2L102.3,332.0L94.1,318.0L87.3,303.3L81.8,288.0L77.9,272.2L75.4,256.2L74.5,240.0L75.2,223.8L77.6,207.7L81.7,192.0L87.4,176.8L94.6,162.3L103.2,148.6L113.1,135.8L124.1,124.1L136.1,113.4L149.0,103.9L162.8,95.5L177.2,88.4L192.3,82.7L207.9,78.5L223.8,75.9L240.0,74.9L256.2,75.7L272.2,78.1L287.9,82.1L303.1,87.6L317.7,94.5L331.7,102.8L344.8,112.3L357.0,123.0L368.1,134.9L378.0,147.8L386.6,161.7L393.6,176.4L399.1,191.7L402.8,207.6L404.9,223.8L405.3,240.0Z" fill="none" stroke="#c8961a" stroke-width="0.79" opacity="0.28"/><path d="M410.9,240.0L410.1,256.8L407.6,273.3L403.4,289.6L397.7,305.3L390.4,320.4L381.8,334.8L371.9,348.3L360.8,360.8L348.5,372.2L335.1,382.3L320.7,391.0L305.5,398.2L289.7,403.7L273.3,407.5L256.7,409.6L240.0,410.0L223.4,408.8L207.0,406.0L190.9,401.9L175.3,396.3L160.2,389.3L145.9,380.9L132.4,371.1L119.9,360.1L108.6,347.8L98.6,334.5L90.1,320.1L83.1,305.0L77.5,289.3L73.5,273.1L71.1,256.6L70.1,240.0L70.6,223.3L72.7,206.7L76.4,190.4L81.8,174.5L88.8,159.2L97.3,144.7L107.4,131.2L118.8,118.8L131.5,107.8L145.1,98.0L159.7,89.7L174.9,82.7L190.6,77.2L206.8,73.2L223.3,70.7L240.0,69.8L256.7,70.6L273.2,73.0L289.4,77.2L305.0,83.0L320.0,90.3L334.1,99.2L347.3,109.3L359.5,120.5L370.6,132.8L380.6,146.1L389.3,160.2L396.8,175.1L402.8,190.6L407.2,206.7L409.9,223.3L410.9,240.0Z" fill="none" stroke="#c8961a" stroke-width="0.65" opacity="0.2"/><defs><filter id="arc-rd-g0-b1" x="-90%" y="-90%" width="280%" height="280%"><feGaussianBlur stdDeviation="12.75"/></filter><filter id="arc-rd-g0-b2" x="-60%" y="-60%" width="220%" height="220%"><feGaussianBlur stdDeviation="3.30"/></filter></defs><use href="#arc-rd-g0" filter="url(#arc-rd-g0-b1)" opacity="0.55"/><use href="#arc-rd-g0" filter="url(#arc-rd-g0-b2)" opacity="0.75"/><g id="arc-rd-g0"><circle cx="240" cy="240" r="54.8" fill="none" stroke="#f5c518" stroke-width="2.44" opacity=".92"/><circle cx="240" cy="240" r="50.3" fill="none" stroke="#fff3c8" stroke-width="0.86" opacity=".50"/><circle cx="240" cy="240" r="61.5" fill="none" stroke="#f5c518" stroke-width="0.72" opacity=".45"/><path d="M301.4,259.7 Q308.1,278.1 305.3,291.7" fill="none" stroke="#c8961a" stroke-width="0.93" opacity=".62"/><path d="M303.4,292.4L307.8,299.1L308.0,299.0L307.1,291.0Z" fill="#f5c518" opacity=".55"/><circle cx="301.4" cy="259.7" r="1.15" fill="#f5c518" opacity="0.60"/><path d="M278.1,292.0 Q297.7,292.5 309.7,285.5" fill="none" stroke="#c8961a" stroke-width="0.93" opacity=".62"/><path d="M309.7,287.5L317.5,285.8L317.5,285.6L309.8,283.6Z" fill="#f5c518" opacity=".55"/><circle cx="278.1" cy="292.0" r="1.15" fill="#f5c518" opacity="0.60"/><path d="M240.3,304.5 Q224.8,316.5 211.0,318.0" fill="none" stroke="#c8961a" stroke-width="0.93" opacity=".62"/><path d="M209.8,316.5L204.8,322.8L204.9,322.9L212.2,319.6Z" fill="#f5c518" opacity=".55"/><circle cx="240.3" cy="304.5" r="1.15" fill="#f5c518" opacity="0.60"/><path d="M202.3,292.3 Q207.9,311.1 218.3,320.4" fill="none" stroke="#c8961a" stroke-width="0.93" opacity=".62"/><path d="M216.4,320.9L220.4,327.9L220.6,327.8L220.1,319.8Z" fill="#f5c518" opacity=".55"/><circle cx="202.3" cy="292.3" r="1.15" fill="#f5c518" opacity="0.60"/><path d="M178.7,260.2 Q162.5,249.2 156.8,236.5" fill="none" stroke="#c8961a" stroke-width="0.93" opacity=".62"/><path d="M157.9,234.9L150.4,232.1L150.3,232.3L155.7,238.1Z" fill="#f5c518" opacity=".55"/><circle cx="178.7" cy="260.2" r="1.15" fill="#f5c518" opacity="0.60"/><path d="M178.6,220.3 Q162.5,231.4 156.9,244.2" fill="none" stroke="#c8961a" stroke-width="0.93" opacity=".62"/><path d="M155.8,242.6L150.4,248.5L150.5,248.6L158.0,245.8Z" fill="#f5c518" opacity=".55"/><circle cx="178.6" cy="220.3" r="1.15" fill="#f5c518" opacity="0.60"/><path d="M201.9,188.0 Q207.3,169.2 217.6,159.8" fill="none" stroke="#c8961a" stroke-width="0.93" opacity=".62"/><path d="M219.5,160.4L219.8,152.3L219.6,152.3L215.7,159.3Z" fill="#f5c518" opacity=".55"/><circle cx="201.9" cy="188.0" r="1.15" fill="#f5c518" opacity="0.60"/><path d="M239.7,175.5 Q224.2,163.6 210.3,162.2" fill="none" stroke="#c8961a" stroke-width="0.93" opacity=".62"/><path d="M211.5,160.7L204.2,157.4L204.1,157.5L209.2,163.8Z" fill="#f5c518" opacity=".55"/><circle cx="239.7" cy="175.5" r="1.15" fill="#f5c518" opacity="0.60"/><path d="M277.7,187.7 Q297.3,187.0 309.3,193.9" fill="none" stroke="#c8961a" stroke-width="0.93" opacity=".62"/><path d="M309.4,195.9L317.1,193.7L317.1,193.5L309.3,192.0Z" fill="#f5c518" opacity=".55"/><circle cx="277.7" cy="187.7" r="1.15" fill="#f5c518" opacity="0.60"/><path d="M301.3,219.8 Q307.8,201.4 304.8,187.8" fill="none" stroke="#c8961a" stroke-width="0.93" opacity=".62"/><path d="M306.7,188.4L307.5,180.4L307.3,180.4L303.0,187.1Z" fill="#f5c518" opacity=".55"/><circle cx="301.3" cy="219.8" r="1.15" fill="#f5c518" opacity="0.60"/><path d="M245.6,180.0L242.9,112.5L240.1,27.0L239.9,27.0L237.1,112.5L234.4,180.0Z" fill="#f5c518" opacity=".95"/><line x1="240.0" y1="177.0" x2="240.0" y2="45.0" stroke="#fff3c8" stroke-width="1.29" stroke-linecap="round" opacity=".85"/><line x1="243.6" y1="171.0" x2="241.3" y2="84.0" stroke="#f5c518" stroke-width="0.65" opacity=".40"/><line x1="236.4" y1="171.0" x2="238.7" y2="84.0" stroke="#f5c518" stroke-width="0.65" opacity=".40"/><line x1="246.3" y1="171.0" x2="242.2" y2="99.0" stroke="#f5c518" stroke-width="0.65" opacity=".40"/><line x1="233.7" y1="171.0" x2="237.8" y2="99.0" stroke="#f5c518" stroke-width="0.65" opacity=".40"/><g transform="rotate(0 240.0 45.0)"><polygon points="240.0,23.3 244.5,45.0 240.0,66.8 235.5,45.0" fill="#f5c518" opacity="0.95"/><polygon points="226.5,45.0 240.0,49.5 253.5,45.0 240.0,40.5" fill="#f5c518" opacity="0.81"/></g><circle cx="240.0" cy="45.0" r="1.87" fill="#fff3c8" opacity="0.90"/><path d="M300.0,245.6L367.5,242.9L453.0,240.1L453.0,239.9L367.5,237.1L300.0,234.4Z" fill="#f5c518" opacity=".95"/><line x1="303.0" y1="240.0" x2="435.0" y2="240.0" stroke="#fff3c8" stroke-width="1.29" stroke-linecap="round" opacity=".85"/><line x1="309.0" y1="243.6" x2="396.0" y2="241.3" stroke="#f5c518" stroke-width="0.65" opacity=".40"/><line x1="309.0" y1="236.4" x2="396.0" y2="238.7" stroke="#f5c518" stroke-width="0.65" opacity=".40"/><line x1="309.0" y1="246.3" x2="381.0" y2="242.2" stroke="#f5c518" stroke-width="0.65" opacity=".40"/><line x1="309.0" y1="233.7" x2="381.0" y2="237.8" stroke="#f5c518" stroke-width="0.65" opacity=".40"/><g transform="rotate(90 435.0 240.0)"><polygon points="435.0,218.3 439.5,240.0 435.0,261.8 430.5,240.0" fill="#f5c518" opacity="0.95"/><polygon points="421.5,240.0 435.0,244.5 448.5,240.0 435.0,235.5" fill="#f5c518" opacity="0.81"/></g><circle cx="435.0" cy="240.0" r="1.87" fill="#fff3c8" opacity="0.90"/><path d="M234.4,300.0L237.1,367.5L239.9,453.0L240.1,453.0L242.9,367.5L245.6,300.0Z" fill="#f5c518" opacity=".95"/><line x1="240.0" y1="303.0" x2="240.0" y2="435.0" stroke="#fff3c8" stroke-width="1.29" stroke-linecap="round" opacity=".85"/><line x1="236.4" y1="309.0" x2="238.7" y2="396.0" stroke="#f5c518" stroke-width="0.65" opacity=".40"/><line x1="243.6" y1="309.0" x2="241.3" y2="396.0" stroke="#f5c518" stroke-width="0.65" opacity=".40"/><line x1="233.7" y1="309.0" x2="237.8" y2="381.0" stroke="#f5c518" stroke-width="0.65" opacity=".40"/><line x1="246.3" y1="309.0" x2="242.2" y2="381.0" stroke="#f5c518" stroke-width="0.65" opacity=".40"/><g transform="rotate(0 240.0 435.0)"><polygon points="240.0,413.3 244.5,435.0 240.0,456.8 235.5,435.0" fill="#f5c518" opacity="0.95"/><polygon points="226.5,435.0 240.0,439.5 253.5,435.0 240.0,430.5" fill="#f5c518" opacity="0.81"/></g><circle cx="240.0" cy="435.0" r="1.87" fill="#fff3c8" opacity="0.90"/><path d="M180.0,234.4L112.5,237.1L27.0,239.9L27.0,240.1L112.5,242.9L180.0,245.6Z" fill="#f5c518" opacity=".95"/><line x1="177.0" y1="240.0" x2="45.0" y2="240.0" stroke="#fff3c8" stroke-width="1.29" stroke-linecap="round" opacity=".85"/><line x1="171.0" y1="236.4" x2="84.0" y2="238.7" stroke="#f5c518" stroke-width="0.65" opacity=".40"/><line x1="171.0" y1="243.6" x2="84.0" y2="241.3" stroke="#f5c518" stroke-width="0.65" opacity=".40"/><line x1="171.0" y1="233.7" x2="99.0" y2="237.8" stroke="#f5c518" stroke-width="0.65" opacity=".40"/><line x1="171.0" y1="246.3" x2="99.0" y2="242.2" stroke="#f5c518" stroke-width="0.65" opacity=".40"/><g transform="rotate(90 45.0 240.0)"><polygon points="45.0,218.3 49.5,240.0 45.0,261.8 40.5,240.0" fill="#f5c518" opacity="0.95"/><polygon points="31.5,240.0 45.0,244.5 58.5,240.0 45.0,235.5" fill="#f5c518" opacity="0.81"/></g><circle cx="45.0" cy="240.0" r="1.87" fill="#fff3c8" opacity="0.90"/><path d="M280.0,284.8L318.3,320.8L354.5,354.6L354.6,354.5L320.8,318.3L284.8,280.0Z" fill="#f5c518" opacity=".80"/><line x1="284.5" y1="284.5" x2="346.1" y2="346.1" stroke="#fff3c8" stroke-width="0.79" stroke-linecap="round" opacity=".55"/><g transform="rotate(45 348.2 348.2)"><polygon points="348.2,335.4 351.2,348.2 348.2,360.9 345.2,348.2" fill="#f5c518" opacity="0.72"/><polygon points="340.3,348.2 348.2,351.2 356.1,348.2 348.2,345.2" fill="#f5c518" opacity="0.61"/></g><path d="M195.2,280.0L159.2,318.3L125.4,354.5L125.5,354.6L161.7,320.8L200.0,284.8Z" fill="#f5c518" opacity=".80"/><line x1="195.5" y1="284.5" x2="133.9" y2="346.1" stroke="#fff3c8" stroke-width="0.79" stroke-linecap="round" opacity=".55"/><g transform="rotate(45 131.8 348.2)"><polygon points="131.8,335.4 134.8,348.2 131.8,360.9 128.8,348.2" fill="#f5c518" opacity="0.72"/><polygon points="123.9,348.2 131.8,351.2 139.7,348.2 131.8,345.2" fill="#f5c518" opacity="0.61"/></g><path d="M200.0,195.2L161.7,159.2L125.5,125.4L125.4,125.5L159.2,161.7L195.2,200.0Z" fill="#f5c518" opacity=".80"/><line x1="195.5" y1="195.5" x2="133.9" y2="133.9" stroke="#fff3c8" stroke-width="0.79" stroke-linecap="round" opacity=".55"/><g transform="rotate(45 131.8 131.8)"><polygon points="131.8,119.1 134.8,131.8 131.8,144.6 128.8,131.8" fill="#f5c518" opacity="0.72"/><polygon points="123.9,131.8 131.8,134.8 139.7,131.8 131.8,128.8" fill="#f5c518" opacity="0.61"/></g><path d="M284.8,200.0L320.8,161.7L354.6,125.5L354.5,125.4L318.3,159.2L280.0,195.2Z" fill="#f5c518" opacity=".80"/><line x1="284.5" y1="195.5" x2="346.1" y2="133.9" stroke="#fff3c8" stroke-width="0.79" stroke-linecap="round" opacity=".55"/><g transform="rotate(45 348.2 131.8)"><polygon points="348.2,119.1 351.2,131.8 348.2,144.6 345.2,131.8" fill="#f5c518" opacity="0.72"/><polygon points="340.3,131.8 348.2,134.8 356.1,131.8 348.2,128.8" fill="#f5c518" opacity="0.61"/></g><path d="M300.5,257.5L375.2,276.3L375.3,276.2L301.2,255.1Z" fill="#f5c518" opacity="0.49"/><path d="M294.0,272.5L343.4,299.8L343.4,299.6L295.2,270.5Z" fill="#f5c518" opacity="0.43"/><path d="M270.5,295.2L303.6,350.3L303.7,350.2L272.5,294.0Z" fill="#f5c518" opacity="0.42"/><path d="M255.1,301.2L272.0,359.7L272.1,359.6L257.5,300.5Z" fill="#f5c518" opacity="0.46"/><path d="M222.5,300.5L206.2,365.7L206.4,365.7L224.9,301.2Z" fill="#f5c518" opacity="0.37"/><path d="M207.5,294.0L172.8,356.2L172.9,356.3L209.5,295.2Z" fill="#f5c518" opacity="0.42"/><path d="M184.8,270.5L116.7,311.1L116.8,311.2L186.0,272.5Z" fill="#f5c518" opacity="0.44"/><path d="M178.8,255.1L115.5,273.3L115.5,273.4L179.5,257.5Z" fill="#f5c518" opacity="0.38"/><path d="M179.5,222.5L123.9,208.8L123.9,209.0L178.8,224.9Z" fill="#f5c518" opacity="0.52"/><path d="M186.0,207.5L117.8,169.3L117.7,169.5L184.8,209.5Z" fill="#f5c518" opacity="0.43"/><path d="M209.5,184.8L173.7,125.0L173.6,125.1L207.5,186.0Z" fill="#f5c518" opacity="0.42"/><path d="M224.9,178.8L209.1,124.2L208.9,124.3L222.5,179.5Z" fill="#f5c518" opacity="0.43"/><path d="M257.5,179.5L272.3,119.8L272.1,119.7L255.1,178.8Z" fill="#f5c518" opacity="0.54"/><path d="M272.5,186.0L309.9,119.1L309.8,119.0L270.5,184.8Z" fill="#f5c518" opacity="0.56"/><path d="M295.2,209.5L344.1,180.0L344.0,179.9L294.0,207.5Z" fill="#f5c518" opacity="0.47"/><path d="M301.2,224.9L374.5,204.0L374.4,203.9L300.5,222.5Z" fill="#f5c518" opacity="0.50"/><line x1="302.9" y1="244.1" x2="360.7" y2="247.9" stroke="#f5c518" stroke-width="0.46" opacity="0.27"/><line x1="301.8" y1="252.3" x2="350.8" y2="262.0" stroke="#f5c518" stroke-width="0.46" opacity="0.20"/><line x1="299.7" y1="260.3" x2="340.4" y2="274.1" stroke="#f5c518" stroke-width="0.46" opacity="0.23"/><line x1="296.5" y1="267.9" x2="347.9" y2="293.2" stroke="#f5c518" stroke-width="0.46" opacity="0.28"/><line x1="292.4" y1="275.0" x2="318.6" y2="292.5" stroke="#f5c518" stroke-width="0.46" opacity="0.26"/><line x1="287.4" y1="281.5" x2="345.2" y2="332.3" stroke="#f5c518" stroke-width="0.46" opacity="0.22"/><line x1="281.5" y1="287.4" x2="317.3" y2="328.2" stroke="#f5c518" stroke-width="0.46" opacity="0.19"/><line x1="275.0" y1="292.4" x2="299.5" y2="329.0" stroke="#f5c518" stroke-width="0.46" opacity="0.14"/><line x1="267.9" y1="296.5" x2="298.6" y2="358.9" stroke="#f5c518" stroke-width="0.46" opacity="0.22"/><line x1="260.3" y1="299.7" x2="276.2" y2="346.5" stroke="#f5c518" stroke-width="0.46" opacity="0.16"/><line x1="252.3" y1="301.8" x2="263.8" y2="359.7" stroke="#f5c518" stroke-width="0.46" opacity="0.21"/><line x1="244.1" y1="302.9" x2="246.6" y2="340.7" stroke="#f5c518" stroke-width="0.46" opacity="0.19"/><line x1="235.9" y1="302.9" x2="232.7" y2="350.8" stroke="#f5c518" stroke-width="0.46" opacity="0.23"/><line x1="227.7" y1="301.8" x2="213.8" y2="372.0" stroke="#f5c518" stroke-width="0.46" opacity="0.26"/><line x1="219.7" y1="299.7" x2="196.8" y2="367.3" stroke="#f5c518" stroke-width="0.46" opacity="0.23"/><line x1="212.1" y1="296.5" x2="179.4" y2="362.9" stroke="#f5c518" stroke-width="0.46" opacity="0.24"/><line x1="205.0" y1="292.4" x2="174.5" y2="338.0" stroke="#f5c518" stroke-width="0.46" opacity="0.14"/><line x1="198.5" y1="287.4" x2="144.6" y2="348.8" stroke="#f5c518" stroke-width="0.46" opacity="0.17"/><line x1="192.6" y1="281.5" x2="169.6" y2="301.7" stroke="#f5c518" stroke-width="0.46" opacity="0.19"/><line x1="187.6" y1="275.0" x2="119.3" y2="320.7" stroke="#f5c518" stroke-width="0.46" opacity="0.23"/><line x1="183.5" y1="267.9" x2="110.8" y2="303.7" stroke="#f5c518" stroke-width="0.46" opacity="0.26"/><line x1="180.3" y1="260.3" x2="111.2" y2="283.7" stroke="#f5c518" stroke-width="0.46" opacity="0.27"/><line x1="178.2" y1="252.3" x2="130.0" y2="261.9" stroke="#f5c518" stroke-width="0.46" opacity="0.26"/><line x1="177.1" y1="244.1" x2="124.9" y2="247.5" stroke="#f5c518" stroke-width="0.46" opacity="0.19"/><line x1="177.1" y1="235.9" x2="120.2" y2="232.1" stroke="#f5c518" stroke-width="0.46" opacity="0.29"/><line x1="178.2" y1="227.7" x2="147.4" y2="221.6" stroke="#f5c518" stroke-width="0.46" opacity="0.18"/><line x1="180.3" y1="219.7" x2="126.6" y2="201.5" stroke="#f5c518" stroke-width="0.46" opacity="0.31"/><line x1="183.5" y1="212.1" x2="111.9" y2="176.8" stroke="#f5c518" stroke-width="0.46" opacity="0.22"/><line x1="187.6" y1="205.0" x2="161.6" y2="187.6" stroke="#f5c518" stroke-width="0.46" opacity="0.30"/><line x1="192.6" y1="198.5" x2="156.2" y2="166.5" stroke="#f5c518" stroke-width="0.46" opacity="0.23"/><line x1="198.5" y1="192.6" x2="154.1" y2="142.0" stroke="#f5c518" stroke-width="0.46" opacity="0.30"/><line x1="205.0" y1="187.6" x2="162.0" y2="123.3" stroke="#f5c518" stroke-width="0.46" opacity="0.23"/><line x1="212.1" y1="183.5" x2="192.7" y2="144.1" stroke="#f5c518" stroke-width="0.46" opacity="0.16"/><line x1="219.7" y1="180.3" x2="192.0" y2="98.6" stroke="#f5c518" stroke-width="0.46" opacity="0.28"/><line x1="227.7" y1="178.2" x2="210.4" y2="91.0" stroke="#f5c518" stroke-width="0.46" opacity="0.21"/><line x1="235.9" y1="177.1" x2="233.3" y2="137.8" stroke="#f5c518" stroke-width="0.46" opacity="0.24"/><line x1="244.1" y1="177.1" x2="248.4" y2="112.1" stroke="#f5c518" stroke-width="0.46" opacity="0.16"/><line x1="252.3" y1="178.2" x2="263.3" y2="122.8" stroke="#f5c518" stroke-width="0.46" opacity="0.14"/><line x1="260.3" y1="180.3" x2="275.4" y2="135.6" stroke="#f5c518" stroke-width="0.46" opacity="0.26"/><line x1="267.9" y1="183.5" x2="304.5" y2="109.1" stroke="#f5c518" stroke-width="0.46" opacity="0.32"/><line x1="275.0" y1="187.6" x2="324.4" y2="113.6" stroke="#f5c518" stroke-width="0.46" opacity="0.17"/><line x1="281.5" y1="192.6" x2="331.4" y2="135.7" stroke="#f5c518" stroke-width="0.46" opacity="0.16"/><line x1="287.4" y1="198.5" x2="320.9" y2="169.1" stroke="#f5c518" stroke-width="0.46" opacity="0.21"/><line x1="292.4" y1="205.0" x2="352.1" y2="165.1" stroke="#f5c518" stroke-width="0.46" opacity="0.24"/><line x1="296.5" y1="212.1" x2="339.4" y2="191.0" stroke="#f5c518" stroke-width="0.46" opacity="0.21"/><line x1="299.7" y1="219.7" x2="354.2" y2="201.2" stroke="#f5c518" stroke-width="0.46" opacity="0.29"/><line x1="301.8" y1="227.7" x2="377.2" y2="212.7" stroke="#f5c518" stroke-width="0.46" opacity="0.19"/><line x1="302.9" y1="235.9" x2="359.5" y2="232.2" stroke="#f5c518" stroke-width="0.46" opacity="0.22"/><circle cx="337.0" cy="280.2" r="1.58" fill="#f5c518" opacity="0.72"/><circle cx="280.2" cy="337.0" r="1.58" fill="#f5c518" opacity="0.72"/><circle cx="199.8" cy="337.0" r="1.58" fill="#f5c518" opacity="0.72"/><circle cx="143.0" cy="280.2" r="1.58" fill="#f5c518" opacity="0.72"/><circle cx="143.0" cy="199.8" r="1.58" fill="#f5c518" opacity="0.72"/><circle cx="199.8" cy="143.0" r="1.58" fill="#f5c518" opacity="0.72"/><circle cx="280.2" cy="143.0" r="1.58" fill="#f5c518" opacity="0.72"/><circle cx="337.0" cy="199.8" r="1.58" fill="#f5c518" opacity="0.72"/><g transform="rotate(83.17210800480098 169.8 158.9)"><polygon points="169.8,152.7 171.4,158.9 169.8,165.1 168.1,158.9" fill="#fff3c8" opacity="0.3539068886311725"/><polygon points="165.9,158.9 169.8,160.6 173.6,158.9 169.8,157.2" fill="#fff3c8" opacity="0.30"/></g><g transform="rotate(74.22503579640761 341.0 319.6)"><polygon points="341.0,313.3 342.0,319.6 341.0,325.9 339.9,319.6" fill="#fff3c8" opacity="0.48051582332700493"/><polygon points="337.0,319.6 341.0,320.7 344.9,319.6 341.0,318.5" fill="#fff3c8" opacity="0.41"/></g><g transform="rotate(61.681766726542264 279.7 101.5)"><polygon points="279.7,97.0 281.4,101.5 279.7,106.0 278.0,101.5" fill="#fff3c8" opacity="0.358737542736344"/><polygon points="276.9,101.5 279.7,103.2 282.5,101.5 279.7,99.8" fill="#fff3c8" opacity="0.30"/></g><g transform="rotate(28.5176943638362 373.1 213.5)"><polygon points="373.1,209.3 374.5,213.5 373.1,217.8 371.7,213.5" fill="#fff3c8" opacity="0.3859605071134865"/><polygon points="370.5,213.5 373.1,214.9 375.8,213.5 373.1,212.1" fill="#fff3c8" opacity="0.33"/></g><g transform="rotate(47.83603252843022 279.3 344.8)"><polygon points="279.3,338.3 281.1,344.8 279.3,351.3 277.6,344.8" fill="#fff3c8" opacity="0.38208775841630993"/><polygon points="275.3,344.8 279.3,346.5 283.4,344.8 279.3,343.1" fill="#fff3c8" opacity="0.32"/></g><g transform="rotate(70.43541233288124 312.4 376.0)"><polygon points="312.4,372.8 313.6,376.0 312.4,379.2 311.2,376.0" fill="#fff3c8" opacity="0.3634426209842786"/><polygon points="310.4,376.0 312.4,377.2 314.4,376.0 312.4,374.8" fill="#fff3c8" opacity="0.31"/></g></g><circle cx="240" cy="240" r="52.2" fill="#0c0900" fill-opacity=".985"/><circle cx="240" cy="240" r="52.2" fill="none" stroke="#f5c518" stroke-width="1.65" opacity=".75"/><circle cx="240" cy="240" r="59.0" fill="none" stroke="#c8961a" stroke-width="1.01" opacity=".42"/></svg>